<?xml version="1.0" standalone="no"?>
<!DOCTYPE svg PUBLIC "-//W3C//DTD SVG 20010904//EN"
 "http://www.w3.org/TR/2001/REC-SVG-20010904/DTD/svg10.dtd">
<svg version="1.0" xmlns="http://www.w3.org/2000/svg"
 width="258.000000pt" height="258.000000pt" viewBox="0 0 258.000000 258.000000"
 preserveAspectRatio="xMidYMid meet">
<metadata>
Created by potrace 1.14, written by Peter Selinger 2001-2017
</metadata>
<g transform="translate(0.000000,258.000000) scale(0.100000,-0.100000)"
fill="#000000" stroke="none">
<path d="M2309 2270 c-104 -10 -199 -42 -254 -86 -43 -34 -65 -70 -86 -144
-14 -46 -41 -76 -169 -189 -34 -30 -70 -70 -81 -90 -11 -20 -31 -54 -45 -76
-13 -22 -28 -46 -33 -54 -6 -10 -19 -1 -52 34 -32 33 -49 44 -62 40 -27 -11
-21 -24 43 -88 61 -62 71 -87 50 -127 -12 -22 -149 -100 -177 -100 -11 0 -28
-9 -38 -20 -16 -18 -17 -23 -4 -48 7 -15 26 -38 40 -52 18 -17 29 -39 32 -66
3 -23 13 -58 22 -78 21 -44 25 -114 7 -125 -18 -11 -86 6 -160 40 -96 45 -124
37 -112 -31 7 -39 34 -75 123 -162 49 -47 143 -99 270 -147 32 -12 33 -23 8
-65 -10 -17 -24 -49 -31 -71 -6 -22 -31 -80 -55 -130 -24 -49 -56 -117 -70
-150 -48 -108 -78 -169 -107 -218 -15 -26 -28 -52 -28 -57 0 -6 18 -10 40 -10
38 0 40 2 74 63 19 34 40 81 47 105 7 23 15 42 19 42 4 0 11 16 14 36 4 19 16
44 26 54 10 10 24 37 30 58 5 22 17 43 25 46 8 3 15 15 15 26 0 11 5 20 10 20
6 0 10 7 10 15 0 8 4 15 10 15 5 0 7 7 4 15 -4 8 -1 15 5 15 6 0 11 16 11 35
0 22 6 38 15 41 8 4 15 14 15 24 0 11 5 22 10 25 6 4 8 11 5 16 -4 5 -1 9 4 9
6 0 11 15 11 33 -1 26 -8 37 -38 58 -21 14 -57 29 -81 33 -41 6 -120 40 -131
56 -3 4 -20 15 -38 24 -34 17 -92 73 -92 87 0 9 20 3 60 -18 14 -7 42 -13 63
-13 24 0 40 -5 43 -15 5 -13 44 -15 265 -15 251 0 259 -1 259 -20 0 -10 -9
-24 -20 -30 -11 -6 -20 -16 -21 -23 0 -7 -18 -28 -41 -47 -84 -73 -167 -160
-152 -160 3 0 -6 -15 -19 -32 -14 -18 -28 -50 -31 -71 -4 -20 -18 -59 -31 -86
-14 -27 -25 -56 -25 -66 0 -9 -11 -55 -24 -103 -30 -111 -56 -223 -56 -239 0
-8 13 -13 34 -13 32 0 34 2 49 58 8 31 19 77 22 101 4 25 16 69 26 100 11 30
19 67 19 83 0 15 5 28 10 28 6 0 10 6 10 13 0 6 6 24 14 38 7 14 16 37 19 51
10 39 123 206 144 212 17 4 119 10 135 7 14 -2 -14 -60 -33 -66 -10 -4 -24
-15 -29 -26 -6 -10 -15 -19 -20 -19 -14 0 -101 -59 -137 -94 -40 -37 -41 -58
-5 -86 23 -19 35 -21 87 -17 33 3 71 9 84 13 23 7 24 6 19 -53 -5 -76 -43
-141 -145 -254 -40 -44 -73 -82 -73 -84 0 -3 29 -5 64 -5 63 0 63 0 92 42 33
47 90 108 103 108 10 0 61 75 61 89 0 5 7 11 15 14 14 6 54 61 87 119 9 16 22
37 30 46 7 9 22 34 33 55 23 47 135 146 193 171 35 16 42 24 42 48 0 15 -2 28
-4 28 -2 0 -44 -20 -93 -45 -82 -43 -213 -149 -213 -174 0 -5 -3 -11 -7 -13
-5 -2 -24 -25 -43 -53 -54 -78 -60 -83 -77 -59 -15 20 -13 39 8 91 14 34 5 58
-11 33 -5 -8 -11 -18 -12 -22 -5 -13 -116 -48 -132 -42 -18 7 -29 35 -21 56 4
9 27 24 53 34 64 24 131 79 176 143 65 94 45 136 -46 95 -48 -22 -73 -11 -73
32 0 25 9 35 62 69 34 22 63 44 63 48 0 5 8 21 19 35 10 15 33 54 51 87 18 33
45 76 60 95 28 36 37 67 47 153 7 68 -13 90 -81 85 -53 -3 -68 9 -41 35 35 35
48 91 53 222 8 235 -17 286 -155 319 -110 26 -135 62 -98 140 36 76 162 115
398 123 l117 4 0 28 c0 27 -2 28 -67 34 -75 8 -82 7 -204 -3z m-215 -390 c45
-21 95 -53 111 -70 30 -31 30 -32 30 -148 0 -105 -2 -121 -25 -162 -48 -88
-90 -120 -159 -120 -36 0 -41 -3 -47 -27 -14 -53 -1 -58 160 -61 l146 -3 0
-27 c0 -28 -16 -57 -70 -127 -16 -22 -33 -48 -36 -57 -4 -10 -13 -18 -20 -18
-8 0 -17 -7 -20 -15 -4 -8 -13 -15 -21 -15 -8 0 -35 -16 -60 -35 l-46 -35
-223 0 -224 0 0 60 c0 50 3 60 18 60 9 0 32 9 50 20 27 16 33 26 30 48 -3 26
-5 27 -52 24 -55 -2 -76 10 -76 44 0 13 -9 41 -21 63 -21 41 -19 61 6 61 21 0
99 55 134 95 17 20 31 47 31 61 0 13 7 27 15 30 18 7 20 35 3 52 -9 9 -7 18
10 39 13 16 28 40 35 56 6 15 15 27 19 27 4 0 8 7 8 15 0 19 81 99 140 138 23
16 45 37 47 48 7 26 14 25 107 -21z m18 -992 c-16 -34 -52 -68 -52 -50 0 12
60 95 65 90 3 -2 -3 -20 -13 -40z"/>
<path d="M966 2251 c-96 -64 -60 -190 55 -191 63 0 99 37 99 101 -1 47 -10 65
-50 92 -32 22 -68 21 -104 -2z"/>
<path d="M698 2005 c-52 -28 -60 -115 -16 -162 30 -33 106 -32 136 0 82 87
-15 219 -120 162z"/>
<path d="M510 1742 c-13 -10 -23 -33 -27 -58 -4 -33 -1 -45 22 -72 30 -36 59
-41 104 -17 82 42 53 165 -38 165 -22 0 -48 -8 -61 -18z"/>
<path d="M883 1730 c-26 -11 -63 -66 -63 -94 0 -69 51 -121 118 -121 37 0 48
5 73 32 48 55 51 107 6 158 -25 28 -96 42 -134 25z"/>
<path d="M300 1522 c-40 -40 -40 -79 0 -122 28 -29 35 -32 73 -27 52 7 77 36
77 87 0 51 -25 80 -77 87 -37 5 -46 2 -73 -25z"/>
<path d="M615 1446 c-44 -20 -64 -47 -71 -98 -9 -64 16 -114 71 -140 57 -28
104 -19 150 29 31 32 35 42 35 88 0 61 -24 99 -76 121 -41 17 -70 17 -109 0z"/>
<path d="M864 1315 c-17 -8 -45 -30 -62 -50 -28 -31 -32 -43 -32 -94 0 -44 6
-66 23 -92 32 -48 92 -80 144 -77 l42 3 -57 -61 -57 -62 -107 -1 c-75 -1 -110
3 -117 11 -6 7 -30 36 -54 64 -40 46 -45 59 -56 129 -17 116 -26 130 -84 129
-57 0 -88 -24 -70 -53 7 -11 8 -23 2 -32 -5 -8 -9 -60 -9 -117 0 -114 9 -143
60 -185 16 -14 30 -30 30 -35 0 -5 7 -15 15 -22 8 -7 24 -31 36 -54 12 -22 57
-72 100 -111 42 -38 87 -88 98 -111 28 -55 73 -227 76 -294 2 -30 8 -68 15
-85 6 -16 15 -48 19 -70 6 -36 10 -40 38 -43 32 -3 32 -3 26 35 -4 21 -15 52
-25 68 -10 17 -18 47 -18 67 0 20 -5 38 -11 40 -7 2 -13 36 -15 78 -4 74 -41
210 -56 210 -4 0 -8 5 -8 10 0 6 -19 38 -42 71 -24 33 -50 72 -58 87 -9 14
-24 30 -34 36 -29 16 -48 37 -81 86 -16 25 -47 62 -69 84 l-39 39 6 81 c3 44
8 89 12 99 14 33 25 16 25 -38 0 -34 6 -65 16 -80 13 -21 14 -25 2 -25 -8 0
-20 6 -28 13 -25 22 5 -14 54 -65 25 -27 50 -48 56 -48 6 0 18 -4 28 -9 9 -5
74 -14 144 -20 103 -9 133 -8 166 3 l39 14 -25 -51 c-13 -29 -29 -55 -34 -58
-6 -4 -8 -27 -4 -55 3 -27 8 -76 12 -109 3 -33 14 -78 24 -100 10 -22 26 -66
36 -99 10 -32 30 -72 45 -88 14 -17 33 -42 40 -56 19 -37 48 -80 89 -133 19
-24 40 -53 46 -64 9 -17 74 -36 74 -22 0 23 -39 84 -89 141 -34 38 -61 73 -61
78 0 5 -15 32 -33 61 -55 86 -72 128 -119 289 -7 25 -8 41 -1 50 6 7 13 37 17
66 5 42 18 68 56 123 60 83 67 131 25 174 -14 14 -34 25 -43 25 -11 0 -5 7 16
20 49 30 72 75 72 142 0 50 -4 62 -31 93 -54 61 -127 79 -195 50z"/>
<path d="M589 1111 c-17 -18 -29 -40 -29 -56 0 -35 50 -85 85 -85 35 0 85 50
85 85 0 16 -12 38 -29 56 -38 38 -74 38 -112 0z"/>
<path d="M2566 15 c-3 -8 -1 -15 4 -15 6 0 10 7 10 15 0 19 -6 19 -14 0z"/>
</g>
</svg>
